<svg height="512" viewBox="0 0 512 512" width="512" xmlns="http://www.w3.org/2000/svg"><g><g><g><path d="m496 336v24a24.006 24.006 0 0 1 -24 24h-432a24.006 24.006 0 0 1 -24-24v-24z" fill="#57565c"/><path d="m496 88v248h-480v-248a24.006 24.006 0 0 1 24-24h432a24.006 24.006 0 0 1 24 24z" fill="#83d8f4"/><path d="m312 432h-112l16-48h80z" fill="#e0e0e2"/><path d="m168 432h176v24h-176z" fill="#57565c"/></g><g><path d="m256 336v-208h72v208" fill="#e0e0e2"/><path d="m184 192h48v143h-48z" fill="#ff5023"/><path d="m232 176v16h-48v-16l4-8h40z" fill="#d9ccbc"/><path d="m228 168h-40l20-40z" fill="#57565c"/><path d="m352 256h48v80h-48z" fill="#ffda44"/><path d="m400 240v16h-48v-16l24-48z" fill="#e0e0e2"/><path d="m160 168c0 17.673-10.745 32-24 32s-24-14.327-24-32 24-40 24-40 24 22.327 24 40z" fill="#5f4d37"/><path d="m152 248h-32l8-48h16z" fill="#e0e0e2"/><path d="m123.667 336-3.667-88h32l-3.667 88" fill="#2d2d30"/></g></g><g><path d="m472 56h-432a32.042 32.042 0 0 0 -32 32v272a32.042 32.042 0 0 0 32 32h164.9l-10.67 32h-26.23a8 8 0 0 0 -8 8v16h-72a8 8 0 0 0 0 16h352a8 8 0 0 0 0-16h-88v-16a8 8 0 0 0 -8-8h-26.23l-10.67-32h164.9a32.042 32.042 0 0 0 32-32v-272a32.042 32.042 0 0 0 -32-32zm-136 384v8h-160v-8zm-124.9-16 10.67-32h68.46l10.67 32zm276.9-64a16.021 16.021 0 0 1 -16 16h-432a16.021 16.021 0 0 1 -16-16v-16h464zm-344.34-104-3 72h-9.32l-3-72zm-14.22-16 5.34-32h2.44l5.34 32zm6.56-48c-8.67 0-16-10.99-16-24 0-8.21 8.38-20.14 15.98-28.55 6.85 7.6 16.02 19.75 16.02 28.55 0 13.01-7.33 24-16 24zm87.06-16 .94 1.89v6.11h-32v-6.11l.94-1.89zm-22.12-16 7.06-14.11 7.06 14.11zm23.06 40v127a8.258 8.258 0 0 0 .07 1h-32.14a8.258 8.258 0 0 0 .07-1v-127zm72-32h24v16h-8a8 8 0 0 0 0 16h8v16h-24a8 8 0 0 0 0 16h24v16h-8a8 8 0 0 0 0 16h8v16h-24a8 8 0 0 0 0 16h24v32h-56v-192h56v16h-24a8 8 0 0 0 0 16zm96 96v63a8.258 8.258 0 0 0 .07 1h-32.14a8.258 8.258 0 0 0 .07-1v-63zm-32-16v-6.11l16-32 16 32v6.11zm128 80h-80.07a8.258 8.258 0 0 0 .07-1v-87a8.081 8.081 0 0 0 -.84-3.58l-24-48a8.009 8.009 0 0 0 -14.32 0l-24 48a8.081 8.081 0 0 0 -.84 3.58v87a8.258 8.258 0 0 0 .07 1h-8.07v-200a8 8 0 0 0 -8-8h-72a8 8 0 0 0 -8 8v200h-8.07a8.258 8.258 0 0 0 .07-1v-151a8.081 8.081 0 0 0 -.84-3.58l-24-48a8.009 8.009 0 0 0 -14.32 0l-24 48a8.081 8.081 0 0 0 -.84 3.58v151a8.258 8.258 0 0 0 .07 1h-19.4l3.32-79.67c.01-.18 0-.36 0-.55v-.24a8.013 8.013 0 0 0 -.1-.84v-.02l-7.4-44.41c9.29-7.01 15.51-19.75 15.51-34.27 0-20.56-23.83-43.33-26.55-45.86a8.017 8.017 0 0 0 -10.9 0c-2.72 2.53-26.55 25.3-26.55 45.86 0 14.52 6.22 27.26 15.51 34.27l-7.4 44.41v.02a8.013 8.013 0 0 0 -.1.84v.24c0 .19-.01.37 0 .55l3.32 79.67h-91.33v-240a16.021 16.021 0 0 1 16-16h432a16.021 16.021 0 0 1 16 16z"/><path d="m96 352h-48a8 8 0 0 0 0 16h48a8 8 0 0 0 0-16z"/><path d="m128 352h-8a8 8 0 0 0 0 16h8a8 8 0 0 0 0-16z"/><path d="m208 208a8 8 0 0 0 -8 8v88a8 8 0 0 0 16 0v-88a8 8 0 0 0 -8-8z"/><path d="m376 272a8 8 0 0 0 -8 8v24a8 8 0 0 0 16 0v-24a8 8 0 0 0 -8-8z"/><path d="m48 104h64a8 8 0 0 0 0-16h-64a8 8 0 0 0 0 16z"/><path d="m48 128h16a8 8 0 0 0 0-16h-16a8 8 0 0 0 0 16z"/><path d="m432 312h32a8 8 0 0 0 0-16h-32a8 8 0 0 0 0 16z"/><path d="m456 288h8a8 8 0 0 0 0-16h-8a8 8 0 0 0 0 16z"/></g></g></svg>