<?xml version="1.0" encoding="iso-8859-1"?>
<!-- Generator: Adobe Illustrator 19.0.0, SVG Export Plug-In . SVG Version: 6.00 Build 0)  -->
<svg version="1.1" id="Capa_1" xmlns="http://www.w3.org/2000/svg" xmlns:xlink="http://www.w3.org/1999/xlink" x="0px" y="0px"
	 viewBox="0 0 512 512" style="enable-background:new 0 0 512 512;" xml:space="preserve">
<g>
	<path style="fill:#F0F0FA;" d="M482.001,36H29.999c-11,0-20,9-20,20v9.999h492.002V56C502.001,45,493.001,36,482.001,36z"/>
	<polygon style="fill:#B2F6FF;" points="502.001,65.999 9.999,65.999 9.999,358.84 199.428,358.84 209.282,366 256,366 302.718,366 
		312.572,358.84 502.001,358.84 	"/>
	<path style="fill:#F0F0FA;" d="M199.428,358.84H9.999V376c0,11,9,20,20,20H216h80h186.001c11,0,20-9,20-20v-17.16H312.572
		l-9.854,7.16H256h-46.718L199.428,358.84z"/>
	<polygon style="fill:#D7D7E8;" points="216,396 196,476 316,476 296,396 	"/>
	<path style="fill:#9797A6;" d="M313.561,197.42c3.836-14.902,13.253-27.563,25.889-35.622l-6.767-20.827l28.531-9.271l6.769,20.833
		c1.22-0.074,2.448-0.113,3.686-0.113c14.506,0,27.81,5.148,38.184,13.717l17.72-12.875l17.634,24.271L427.5,190.398
		c2.691,6.818,4.17,14.247,4.17,22.021c0,7.775-1.479,15.204-4.17,22.021l17.709,12.866l-17.634,24.271l-17.72-12.875
		c-10.374,8.569-23.678,13.717-38.184,13.717c-1.238,0-2.467-0.039-3.686-0.113l-6.769,20.833l-28.531-9.271l6.767-20.827
		c-12.637-8.06-22.054-20.72-25.889-35.622h-21.89v-30L313.561,197.42L313.561,197.42z M351.67,212.42c0,11.046,8.954,20,20,20
		s20-8.954,20-20s-8.954-20-20-20C360.625,192.419,351.67,201.374,351.67,212.42z"/>
	<path style="fill:#FD4848;" d="M183.393,134.94c14.299,3.68,27.048,11.217,37.078,21.431l19.525-11.272l20,34.641l-19.505,11.262
		c1.89,6.817,2.903,13.999,2.903,21.418s-1.013,14.601-2.903,21.418l19.506,11.262l-20,34.641l-19.524-11.272
		c-10.031,10.215-22.78,17.751-37.079,21.432v22.52h-40v-22.522c-14.297-3.681-27.047-11.216-37.077-21.43L86.791,279.74l-20-34.641
		l19.507-11.262c-1.89-6.817-2.904-13.999-2.904-21.417c0-7.419,1.013-14.601,2.903-21.418L66.791,179.74l20-34.641l19.524,11.272
		c10.031-10.215,22.78-17.751,37.079-21.432v-22.52h40L183.393,134.94L183.393,134.94z M163.393,172.42c-22.091,0-40,17.909-40,40
		s17.909,40,40,40s40-17.909,40-40C203.393,190.328,185.485,172.42,163.393,172.42z"/>
</g>
<path d="M482,26h-30c-5.523,0-10,4.477-10,10s4.477,10,10,10h30c5.514,0,10,4.486,10,10H20c0-5.514,4.486-10,10-10h353.036
	c5.523,0,10-4.477,10-10s-4.477-10-10-10H30C13.458,26,0,39.458,0,56v320c0,16.542,13.458,30,30,30h173.193l-15,60h-23.226
	c-5.523,0-10,4.477-10,10s4.477,10,10,10l0,0h182.068l0,0c5.523,0,10-4.477,10-10s-4.477-10-10-10h-23.227l-15-60H482
	c16.542,0,30-13.458,30-30V56C512,39.458,498.542,26,482,26z M20,75.999h472v272.84H312.572c-2.112,0-4.169,0.668-5.878,1.91
	l-7.226,5.25h-86.937l-7.226-5.25c-1.708-1.242-3.766-1.91-5.878-1.91H20V75.999z M303.191,466h-94.384l15-60h64.384L303.191,466z
	 M482,386L482,386H30l0,0c-5.514,0-10-4.486-10-10v-7.16h176.178l7.226,5.25c1.708,1.242,3.766,1.91,5.878,1.91h93.436
	c2.112,0,4.169-0.668,5.878-1.91l7.226-5.25H492V376C492,381.514,487.514,386,482,386z"/>
<path d="M411.766,46h0.27c5.523,0,10-4.477,10-10s-4.477-10-10-10h-0.27c-5.523,0-10,4.477-10,10S406.243,46,411.766,46z"/>
<path d="M136.235,466h-0.27c-5.523,0-10,4.477-10,10s4.477,10,10,10h0.27c5.523,0,10-4.477,10-10S141.758,466,136.235,466z"/>
<path d="M371.67,242.419c16.542,0,30-13.458,30-30s-13.458-30-30-30s-30,13.458-30,30S355.128,242.419,371.67,242.419z
	 M371.67,202.419c5.514,0,10,4.486,10,10s-4.486,10-10,10s-10-4.486-10-10S366.156,202.419,371.67,202.419z"/>
<path d="M291.671,237.419h14.594c4.401,11.548,11.77,21.684,21.423,29.465l-4.515,13.894c-1.707,5.253,1.168,10.894,6.42,12.601
	l28.531,9.271c1.008,0.327,2.05,0.489,3.09,0.489c1.564,0,3.121-0.367,4.541-1.09c2.363-1.204,4.151-3.297,4.971-5.82l4.517-13.902
	c12.342-0.634,24.317-4.54,34.631-11.25l11.824,8.59c2.146,1.56,4.821,2.204,7.442,1.787c2.619-0.415,4.967-1.854,6.526-3.999
	l17.634-24.271c3.246-4.468,2.256-10.722-2.212-13.968l-11.81-8.581c1.591-5.909,2.394-12.009,2.394-18.217
	s-0.803-12.308-2.394-18.216l11.81-8.581c2.146-1.559,3.584-3.906,3.999-6.526s-0.228-5.297-1.787-7.442l-17.634-24.271
	c-3.246-4.467-9.499-5.458-13.968-2.212l-11.824,8.591c-10.313-6.711-22.29-10.617-34.631-11.25l-4.517-13.902
	c-0.82-2.522-2.608-4.616-4.971-5.82c-2.363-1.203-5.106-1.419-7.63-0.601l-28.531,9.271c-5.252,1.707-8.127,7.349-6.42,12.601
	l4.515,13.893c-9.651,7.781-17.022,17.918-21.423,29.465h-14.594c-5.523,0-10,4.477-10,10v30
	C281.671,232.942,286.148,237.419,291.671,237.419z M301.671,207.419h11.89c4.563,0,8.547-3.088,9.685-7.507
	c3.161-12.281,10.826-22.823,21.583-29.684c3.842-2.45,5.541-7.188,4.133-11.521l-3.677-11.316l9.51-3.09l3.679,11.323
	c1.408,4.334,5.567,7.177,10.118,6.891c1.034-0.063,2.07-0.095,3.079-0.095c11.595,0,22.894,4.058,31.816,11.427
	c3.518,2.905,8.556,3.062,12.246,0.38l9.63-6.997l5.878,8.09l-9.618,6.988c-3.69,2.681-5.099,7.52-3.424,11.762
	c2.304,5.836,3.472,12.01,3.472,18.35s-1.168,12.514-3.472,18.35c-1.675,4.243-0.266,9.081,3.424,11.762l9.618,6.988l-5.878,8.09
	l-9.63-6.997c-3.69-2.681-8.729-2.525-12.246,0.38c-8.921,7.369-20.221,11.427-31.816,11.427c-1.002,0-2.04-0.032-3.083-0.095
	c-4.561-0.28-8.706,2.559-10.114,6.892l-3.679,11.322l-9.51-3.09l3.677-11.316c1.408-4.334-0.292-9.071-4.133-11.521
	c-10.757-6.861-18.422-17.402-21.583-29.684c-1.137-4.419-5.122-7.507-9.685-7.507h-11.89V207.419z"/>
<path d="M234.997,288.4c4.785,2.763,10.899,1.124,13.66-3.66l20-34.641c2.762-4.783,1.123-10.899-3.66-13.66l-13.108-7.568
	c1-5.409,1.505-10.916,1.505-16.451s-0.505-11.042-1.505-16.451l13.108-7.568c4.783-2.761,6.422-8.877,3.66-13.66l-20-34.641
	c-1.326-2.297-3.51-3.973-6.072-4.659c-2.563-0.688-5.292-0.327-7.588,0.999l-13.12,7.575c-8.419-7.206-18.076-12.79-28.483-16.469
	v-15.125c0-5.523-4.477-10-10-10h-40c-5.523,0-10,4.477-10,10v15.125c-10.406,3.679-20.063,9.264-28.483,16.469l-13.12-7.575
	c-2.296-1.326-5.025-1.685-7.588-0.999c-2.562,0.687-4.746,2.362-6.072,4.659l-20,34.641c-2.762,4.783-1.123,10.899,3.66,13.66
	l13.107,7.568c-1,5.408-1.505,10.915-1.505,16.451c0,5.534,0.505,11.041,1.506,16.451L61.79,236.44
	c-4.783,2.761-6.422,8.877-3.66,13.66l20,34.641c2.761,4.783,8.877,6.421,13.66,3.66l13.121-7.575
	c8.417,7.204,18.075,12.787,28.481,16.467v15.127c0,5.523,4.477,10,10,10h40c5.523,0,10-4.477,10-10v-15.125
	c10.406-3.68,20.063-9.264,28.483-16.469L234.997,288.4z M213.337,261.461c-8.946,9.109-20.163,15.595-32.437,18.754
	c-4.418,1.137-7.507,5.122-7.507,9.684v12.52h-20v-12.522c0-4.563-3.088-8.546-7.506-9.684
	c-12.277-3.161-23.493-9.646-32.436-18.752c-3.195-3.254-8.186-3.934-12.135-1.654l-10.865,6.273l-10-17.32l10.847-6.263
	c3.948-2.279,5.854-6.939,4.637-11.332c-1.686-6.082-2.541-12.389-2.541-18.746c0-6.362,0.854-12.669,2.539-18.746
	c1.218-4.393-0.688-9.053-4.636-11.332l-10.845-6.262l10-17.321l10.864,6.272c3.95,2.28,8.939,1.6,12.135-1.653
	c8.946-9.11,20.163-15.595,32.437-18.754c4.419-1.138,7.507-5.122,7.507-9.685v-12.521h20v12.521c0,4.563,3.088,8.547,7.507,9.685
	c12.275,3.159,23.491,9.644,32.436,18.753c3.195,3.254,8.186,3.934,12.135,1.654l10.864-6.272l10,17.321l-10.845,6.262
	c-3.947,2.279-5.854,6.939-4.637,11.331c1.685,6.08,2.54,12.387,2.54,18.747s-0.854,12.668-2.54,18.747
	c-1.218,4.393,0.689,9.053,4.637,11.332l10.845,6.262l-10,17.32l-10.864-6.272C221.522,257.528,216.532,258.208,213.337,261.461z"/>
<path d="M163.394,162.419c-27.57,0-50,22.43-50,50s22.43,50,50,50s50-22.43,50-50S190.964,162.419,163.394,162.419z
	 M163.394,242.419c-16.542,0-30-13.458-30-30s13.458-30,30-30s30,13.458,30,30S179.936,242.419,163.394,242.419z"/>
<g>
</g>
<g>
</g>
<g>
</g>
<g>
</g>
<g>
</g>
<g>
</g>
<g>
</g>
<g>
</g>
<g>
</g>
<g>
</g>
<g>
</g>
<g>
</g>
<g>
</g>
<g>
</g>
<g>
</g>
</svg>
